<?xml version="1.0" encoding="utf-8"?>
<!-- Generator: Adobe Illustrator 23.1.0, SVG Export Plug-In . SVG Version: 6.00 Build 0)  -->
<svg version="1.1" id="Layer_1" xmlns="http://www.w3.org/2000/svg" xmlns:xlink="http://www.w3.org/1999/xlink" x="0px" y="0px"
	 viewBox="0 0 512 512" style="enable-background:new 0 0 512 512;" xml:space="preserve">
<style type="text/css">
	.st0{fill:#7F5539;}
</style>
<path class="st0" d="M167,309.3c-40.1,2.6-76.5,17.9-97.2,72.3c-2.3,6.2-8,10-14.6,10C44.1,391.6,9.8,364,0,357.3
	C0,439.6,37.9,512,128,512c75.9,0,128-43.8,128-120.2c0-3.1-0.6-6.1-1-9.1L167,309.3L167,309.3z M457.9,0
	c-15.2,0-29.4,6.7-40.2,16.5C213.3,199.1,192,203.3,192,257.1c0,13.7,3.2,26.8,8.7,38.7l63.8,53.2c7.2,1.8,14.6,3,22.4,3
	c62.1,0,98.1-45.5,211.2-256.5c7.4-14.3,13.9-29.8,13.9-46C512,20.6,486,0,457.9,0z"/>
</svg>
